<?xml version="1.0" standalone="no"?>
<!DOCTYPE svg PUBLIC "-//W3C//DTD SVG 20010904//EN"
 "http://www.w3.org/TR/2001/REC-SVG-20010904/DTD/svg10.dtd">
<svg version="1.0" xmlns="http://www.w3.org/2000/svg"
 width="662.000000pt" height="662.000000pt" viewBox="0 0 662.000000 662.000000"
 preserveAspectRatio="xMidYMid meet">
<metadata>
Created by potrace 1.11, written by Peter Selinger 2001-2013
</metadata>
<g transform="translate(0.000000,662.000000) scale(0.100000,-0.100000)"
fill="#000000" stroke="none">
<path d="M2569 5465 c-1 -3 -2 -10 -3 -17 0 -6 -7 -13 -15 -16 -9 -3 -11 0 -6
8 5 8 4 11 -2 7 -6 -4 -9 -18 -8 -32 2 -14 -1 -23 -6 -19 -5 3 -10 0 -10 -5
-1 -6 -2 -15 -3 -21 0 -5 -10 -20 -21 -32 -11 -13 -18 -29 -17 -35 2 -7 -2
-13 -7 -13 -5 0 -13 -9 -16 -20 -3 -11 -11 -20 -17 -20 -6 0 -5 7 3 18 11 14
10 14 -8 -2 -21 -17 -23 -43 -2 -31 5 4 9 1 9 -6 0 -6 -8 -9 -20 -6 -16 4 -18
2 -11 -11 7 -12 3 -26 -15 -49 -14 -18 -22 -33 -18 -33 4 0 -2 -8 -12 -17 -10
-10 -19 -25 -19 -33 0 -8 -8 -14 -18 -14 -12 1 -15 -2 -8 -10 6 -8 3 -20 -9
-36 -11 -14 -20 -31 -20 -39 0 -7 -6 -11 -13 -8 -10 4 -13 -2 -9 -19 5 -26 -6
-31 -28 -12 -13 11 -13 11 -2 -1 16 -20 15 -31 -4 -31 -9 0 -12 5 -8 12 4 6 3
8 -4 4 -6 -3 -9 -16 -7 -27 3 -16 0 -19 -13 -14 -13 5 -14 3 -5 -6 13 -13 37
-3 28 12 -4 5 -1 9 4 9 16 0 13 -16 -4 -30 -8 -7 -12 -16 -9 -21 3 -6 -6 -8
-20 -5 -14 3 -26 0 -26 -6 0 -5 7 -8 15 -4 18 7 18 4 3 -29 -6 -14 -18 -25
-27 -25 -12 0 -13 -2 -3 -9 10 -6 10 -10 -2 -21 -9 -7 -14 -16 -11 -20 3 -4
-6 -19 -18 -32 -13 -14 -21 -31 -19 -38 3 -7 0 -10 -6 -6 -5 3 -13 -5 -16 -19
-4 -14 -11 -25 -17 -25 -6 0 -7 5 -4 10 3 6 2 10 -3 10 -5 0 -9 -14 -10 -31 0
-17 -5 -36 -11 -43 -6 -7 -9 -15 -6 -18 3 -3 -5 -13 -17 -24 -12 -10 -18 -14
-15 -7 4 6 3 14 -2 17 -10 7 -9 -13 2 -30 7 -12 -1 -24 -15 -24 -5 0 -7 4 -3
9 3 5 1 12 -4 15 -5 3 -7 -10 -4 -31 5 -32 3 -35 -16 -30 -18 4 -19 2 -11 -14
8 -14 6 -23 -9 -38 -11 -11 -17 -22 -13 -25 3 -3 -2 -6 -12 -6 -11 0 -15 5
-10 13 4 6 3 8 -1 4 -15 -14 -15 -39 1 -33 8 3 14 1 14 -4 0 -9 -15 -14 -33
-11 -5 1 -6 -3 -2 -9 10 -15 -5 -51 -17 -44 -8 5 -9 1 -5 -10 5 -11 3 -15 -5
-10 -7 5 -9 2 -5 -9 3 -8 0 -21 -8 -27 -11 -9 -13 -7 -9 12 4 21 4 21 -4 3 -5
-11 -7 -25 -5 -32 3 -7 -10 -33 -28 -59 -18 -26 -32 -54 -32 -62 0 -11 -4 -10
-14 4 -15 21 -17 11 -3 -16 9 -17 7 -18 -18 -14 -24 5 -25 4 -9 -8 16 -12 16
-15 2 -35 -9 -13 -23 -20 -35 -18 -11 2 -22 0 -25 -5 -3 -5 3 -7 15 -5 11 2
22 0 25 -6 4 -5 1 -9 -4 -9 -6 0 -11 -7 -11 -15 0 -18 -17 -20 -23 -2 -2 6 -2
2 0 -11 5 -30 -15 -65 -33 -58 -8 3 -12 2 -9 -3 3 -5 1 -12 -4 -15 -5 -3 -7
-15 -4 -26 4 -14 0 -20 -12 -20 -14 0 -15 -3 -5 -15 8 -10 9 -15 2 -15 -6 0
-16 8 -21 18 -13 22 -14 7 -1 -18 7 -14 6 -23 -5 -33 -8 -8 -11 -18 -7 -21 3
-4 -4 -9 -16 -13 -12 -3 -22 -10 -22 -15 0 -5 5 -6 11 -2 7 4 4 -7 -7 -25 -10
-17 -25 -31 -34 -32 -10 0 -11 -2 -3 -6 17 -6 -4 -46 -21 -40 -8 3 -11 -5 -10
-24 2 -26 0 -28 -18 -18 -13 7 -18 7 -14 1 3 -6 3 -12 -1 -15 -5 -2 -2 -2 5
-1 6 2 12 -1 12 -6 0 -9 -15 -14 -33 -11 -5 1 -6 -3 -2 -9 3 -6 11 -8 16 -5 5
3 6 -1 3 -10 -5 -13 -9 -13 -22 -3 -13 11 -14 10 -3 -10 10 -18 9 -23 -4 -28
-8 -3 -12 -11 -8 -17 4 -7 0 -8 -13 -3 -15 5 -16 4 -7 -5 16 -16 5 -39 -21
-40 -11 0 -15 -3 -8 -6 19 -7 14 -23 -5 -16 -16 6 -17 5 -3 -12 12 -15 12 -17
1 -10 -11 6 -13 4 -8 -8 4 -11 1 -17 -9 -17 -8 0 -13 -4 -10 -8 3 -5 -8 -31
-25 -60 -22 -39 -33 -50 -47 -45 -14 5 -14 4 2 -9 14 -11 16 -17 6 -23 -7 -4
-16 -2 -21 6 -6 9 -6 1 -2 -20 5 -29 4 -33 -10 -28 -11 4 -14 2 -10 -9 5 -12
-7 -19 -30 -15 -4 0 -7 -4 -7 -10 0 -6 7 -9 15 -5 8 3 15 1 15 -4 0 -6 -5 -10
-11 -10 -5 0 -7 -4 -4 -10 3 -5 2 -10 -3 -10 -9 0 -25 -37 -23 -52 0 -4 -7 -4
-16 -1 -13 5 -15 2 -9 -12 6 -17 -25 -60 -37 -49 -2 3 -2 -7 0 -21 3 -14 1
-25 -6 -25 -6 0 -8 8 -4 18 3 9 2 14 -2 9 -5 -4 -9 -17 -11 -30 -1 -12 -3 -25
-3 -29 -1 -5 -6 -8 -12 -8 -6 0 -8 7 -5 16 5 14 4 15 -9 4 -14 -11 -13 -14 2
-27 17 -14 17 -14 -1 -9 -15 5 -17 4 -7 -7 8 -11 6 -20 -12 -39 -13 -14 -21
-30 -19 -36 2 -7 -1 -12 -7 -12 -6 0 -11 5 -11 12 0 6 -3 8 -6 5 -4 -4 -1 -14
7 -24 12 -15 12 -16 -3 -10 -13 4 -15 2 -11 -10 4 -10 2 -14 -4 -10 -6 4 -10
-1 -9 -11 0 -10 -5 -16 -13 -14 -11 2 -12 0 -3 -11 10 -11 9 -17 -5 -28 -16
-13 -17 -12 -4 4 9 11 10 17 2 17 -6 0 -11 -3 -12 -7 0 -5 -2 -21 -3 -36 -1
-16 -8 -32 -16 -37 -8 -5 -15 -15 -15 -22 0 -7 -7 -13 -16 -12 -9 1 -16 -5
-16 -12 0 -7 5 -10 10 -7 9 5 -36 -78 -56 -104 -15 -20 -37 -16 -30 5 3 9 3
14 -1 11 -12 -11 -15 -48 -4 -55 7 -4 8 -2 4 4 -4 7 -2 12 3 12 14 0 14 -3 -1
-35 -6 -14 -19 -25 -29 -25 -20 0 -33 -26 -17 -36 6 -4 8 -3 4 4 -3 6 -2 13 3
16 5 4 8 -1 7 -10 -1 -8 -9 -20 -17 -25 -8 -5 -10 -9 -5 -9 5 0 2 -8 -7 -18
-10 -10 -14 -22 -10 -27 5 -4 2 -5 -5 -1 -7 4 -10 11 -7 16 3 5 1 11 -4 15 -6
3 -8 -6 -5 -21 3 -16 1 -23 -6 -19 -6 3 -7 0 -4 -9 7 -18 -19 -49 -32 -38 -5
4 -3 -1 4 -10 11 -13 10 -18 -2 -25 -8 -4 -16 -12 -17 -18 -6 -29 -24 -54 -42
-59 -13 -3 -18 -10 -13 -22 4 -10 -5 -35 -21 -63 -15 -25 -26 -48 -26 -51 3
-12 -21 -30 -33 -26 -8 3 -11 0 -7 -9 5 -13 -10 -49 -49 -116 -7 -13 -22 -32
-33 -42 -11 -11 -14 -16 -5 -12 8 4 6 -1 -4 -9 -11 -9 -16 -16 -12 -16 5 0 3
-6 -3 -13 -6 -8 -9 -16 -6 -19 3 -3 -2 -11 -11 -18 -13 -12 -17 -11 -25 1 -12
19 -11 2 1 -22 7 -12 7 -19 1 -19 -5 0 -13 -9 -16 -20 -4 -11 -11 -18 -16 -14
-6 3 -10 0 -8 -7 3 -29 -1 -38 -17 -32 -14 5 -15 3 -5 -15 8 -15 8 -23 -1 -28
-6 -4 -8 -3 -5 3 4 6 0 13 -8 17 -8 3 -17 0 -21 -6 -4 -7 -3 -8 4 -4 15 9 16
-32 2 -54 -5 -8 -10 -11 -10 -6 0 5 -6 3 -13 -3 -8 -6 -17 -8 -20 -4 -4 3 -7
1 -7 -6 0 -8 7 -10 22 -5 20 6 21 5 9 -9 -7 -9 -18 -14 -24 -10 -5 3 -7 1 -3
-5 7 -12 -13 -62 -26 -62 -5 0 -6 -5 -2 -12 5 -8 2 -9 -11 -4 -15 5 -16 4 -5
-9 10 -12 10 -15 -4 -16 -29 -2 -34 -4 -42 -11 -3 -4 3 -6 15 -3 11 2 21 0 21
-6 0 -5 -8 -9 -17 -10 -10 0 -13 -3 -6 -5 17 -7 4 -34 -16 -35 -10 0 -11 -3
-4 -6 9 -3 9 -11 -3 -29 -9 -13 -12 -24 -8 -25 5 -1 79 0 164 0 85 1 162 2
170 1 8 0 47 -1 87 -2 46 0 70 -5 66 -11 -4 -6 -1 -7 8 -1 20 13 43 15 166 12
46 0 70 -5 66 -11 -4 -6 -1 -7 8 -1 22 14 500 14 492 0 -4 -6 0 -5 9 2 8 7 23
10 32 6 9 -3 16 -1 16 6 0 6 5 8 12 4 16 -10 198 -12 219 -2 9 4 19 4 23 0 4
-3 83 -6 176 -7 131 0 171 3 175 13 3 7 10 10 16 6 8 -4 9 -3 5 5 -4 6 6 32
23 57 17 25 31 49 31 55 0 5 4 9 10 9 5 0 9 3 8 7 -2 10 17 51 42 88 11 17 23
36 26 42 3 7 11 10 17 6 5 -3 7 -1 3 5 -3 6 10 40 30 77 32 58 38 64 53 53 14
-12 15 -11 2 5 -13 16 -13 20 0 28 8 5 10 9 6 9 -5 0 1 13 12 29 12 16 21 33
21 39 0 5 7 15 15 22 8 6 13 17 12 23 -1 7 4 11 11 9 8 -1 11 1 8 6 -7 11 25
74 49 95 11 10 13 15 5 11 -11 -6 -10 -2 3 13 9 11 17 25 17 32 0 6 7 14 15
17 8 4 13 10 10 14 -3 5 2 16 11 24 8 9 12 16 8 16 -4 0 0 8 8 18 8 9 23 34
32 56 12 25 21 34 26 26 5 -9 9 -8 13 4 3 8 2 16 -3 18 -5 2 -3 11 5 21 8 12
15 14 20 8 3 -6 1 -11 -4 -11 -7 0 -7 -7 1 -20 7 -11 17 -20 22 -20 4 0 3 7
-4 15 -9 10 -9 15 -1 15 10 0 15 -14 9 -24 -2 -2 5 -13 16 -25 10 -11 16 -27
13 -35 -4 -11 -1 -13 11 -10 15 5 15 4 -1 -9 -17 -14 -16 -15 13 -25 16 -6 30
-14 30 -17 0 -3 -4 -3 -10 0 -5 3 -10 2 -10 -3 0 -6 7 -13 16 -16 10 -4 14
-13 10 -28 -3 -13 -3 -17 0 -10 10 21 22 13 19 -13 -1 -14 0 -23 3 -20 3 2 11
0 19 -6 10 -9 11 -15 2 -26 -10 -11 -8 -12 6 -6 15 5 17 3 12 -11 -4 -9 -3
-15 1 -12 5 3 23 -20 40 -50 17 -30 26 -52 19 -48 -6 4 -9 4 -5 -1 4 -4 2 -15
-4 -24 -10 -13 -10 -14 2 -4 14 13 39 19 27 6 -4 -3 0 -11 9 -17 8 -6 16 -21
17 -33 0 -12 6 -21 12 -20 5 1 9 -4 8 -10 -2 -7 3 -13 10 -13 8 0 7 -4 -3 -10
-13 -9 -13 -10 0 -10 8 0 21 -10 29 -22 13 -22 13 -22 -6 -8 -10 8 -6 2 10
-13 16 -16 30 -39 31 -52 0 -13 5 -21 10 -17 5 3 7 -2 3 -11 -4 -12 -2 -14 10
-10 10 4 14 2 9 -5 -3 -6 -2 -13 4 -17 6 -4 8 -10 5 -15 -3 -4 2 -11 11 -14 8
-3 12 -10 9 -16 -3 -5 -1 -10 4 -10 6 0 11 -7 11 -15 0 -8 5 -15 10 -15 6 0
10 -5 10 -11 0 -6 9 -24 21 -40 11 -16 21 -38 22 -48 0 -11 4 -18 9 -15 11 7
29 -33 22 -53 -4 -13 -3 -15 4 -4 7 10 11 10 17 1 4 -6 14 -9 22 -6 8 3 24 1
35 -5 15 -8 19 -8 14 0 -4 6 0 11 9 11 10 0 13 -5 9 -12 -5 -7 -3 -8 7 -2 18
11 59 12 81 2 10 -5 20 -3 24 3 4 8 9 7 15 -2 5 -8 9 -9 9 -4 0 11 109 13 126
2 6 -3 14 -3 18 1 11 10 40 9 48 -3 5 -7 8 -7 8 0 0 11 229 13 247 2 6 -4 14
-3 18 2 3 5 14 8 25 5 11 -2 29 -6 40 -8 11 -3 18 -1 16 3 -7 10 77 6 94 -4 9
-6 11 -4 5 5 -5 9 -2 10 12 6 15 -5 23 0 31 19 7 15 17 23 22 20 5 -3 8 0 5 7
-5 15 31 66 40 56 4 -3 -3 -16 -16 -29 -17 -17 -18 -21 -5 -16 10 4 20 7 22 7
2 0 4 7 4 16 0 9 5 12 12 8 6 -4 8 -3 4 4 -3 6 2 15 11 21 10 6 14 11 8 11 -5
0 1 7 15 15 14 8 19 14 13 15 -7 0 -21 -8 -31 -18 -10 -9 -24 -18 -30 -19 -17
-4 -15 14 3 21 9 3 12 12 9 23 -4 13 -3 15 4 5 8 -12 13 -12 31 -1 11 8 21 18
21 23 0 4 8 2 18 -5 15 -12 15 -11 -1 8 -11 12 -25 19 -34 16 -10 -4 -11 -8
-3 -13 8 -5 7 -10 -3 -18 -11 -9 -13 -7 -12 10 1 12 7 24 13 26 7 2 10 7 8 11
-3 4 0 13 6 21 8 13 9 12 5 -2 -3 -9 0 -18 6 -21 8 -3 12 8 12 31 0 23 5 37
15 39 13 4 13 3 0 -6 -8 -6 -10 -11 -4 -11 5 0 20 13 32 29 20 27 20 31 6 45
-9 10 -11 16 -4 16 7 0 20 -10 29 -22 14 -17 18 -18 18 -5 0 9 -4 14 -9 11 -4
-3 -8 2 -8 11 0 10 5 13 12 9 6 -4 8 -3 4 4 -3 6 1 15 9 20 21 11 9 43 -13 35
-15 -4 -15 -3 -2 6 8 6 15 15 15 21 0 6 11 20 25 31 20 16 21 18 5 13 -16 -5
-17 -4 -5 4 8 6 18 8 22 6 5 -3 7 6 4 21 -3 17 0 28 10 32 7 3 12 8 9 12 -2 4
2 8 10 8 12 0 12 -3 2 -16 -10 -14 -10 -14 4 -4 9 7 19 9 24 5 4 -4 2 3 -6 15
-7 12 -18 19 -24 15 -14 -8 17 31 32 41 7 4 10 14 7 22 -4 8 -1 15 6 15 6 0 8
5 5 10 -4 6 -1 9 6 8 7 -2 14 3 15 10 1 6 3 14 4 17 1 3 3 10 4 16 0 6 10 17
20 25 11 8 16 14 11 14 -5 0 -4 5 3 12 9 9 15 9 23 1 8 -8 4 -15 -16 -26 -23
-11 -25 -15 -11 -20 11 -4 15 -3 10 4 -4 7 1 9 17 5 13 -3 18 -3 11 0 -10 5
-10 9 -1 20 8 10 7 17 -4 28 -8 8 -18 12 -22 8 -5 -4 -5 -1 -1 6 6 10 13 10
34 -4 15 -9 21 -10 14 -3 -10 11 -8 17 10 32 14 10 17 16 8 15 -8 -2 -20 -9
-26 -17 -9 -11 -12 -12 -19 -1 -6 9 -4 11 5 5 10 -6 12 -4 7 9 -4 10 -3 15 3
11 9 -5 14 6 12 26 -1 3 12 5 28 4 16 -1 27 2 23 8 -3 5 0 13 6 17 9 5 8 10
-4 20 -13 11 -15 10 -9 -6 5 -16 4 -17 -6 -4 -10 13 -11 13 -6 -2 6 -19 -9
-34 -18 -19 -4 5 5 23 19 39 13 16 21 32 18 36 -4 4 0 4 8 1 11 -4 25 6 43 30
15 19 32 32 38 29 5 -4 2 5 -7 20 -10 14 -13 26 -7 26 6 0 16 -8 22 -17 10
-16 11 -16 6 -1 -6 20 12 37 37 33 9 -2 15 1 11 6 -3 5 -9 7 -14 4 -16 -10
-20 13 -5 25 17 14 20 36 5 45 -6 3 -7 -1 -4 -10 7 -17 -14 -48 -27 -39 -5 3
-9 0 -9 -5 0 -6 5 -11 11 -11 8 0 7 -5 -2 -16 -8 -10 -15 -12 -17 -5 -2 6 -8
8 -14 5 -5 -4 -3 5 7 19 9 14 23 28 31 31 8 3 14 11 14 18 0 9 -3 8 -10 -2 -5
-8 -10 -10 -10 -4 0 6 7 17 15 24 8 7 13 16 10 20 -3 4 2 11 11 14 8 3 12 11
8 17 -4 8 -3 9 4 5 7 -4 12 -1 12 9 0 9 5 13 11 10 7 -5 4 -14 -8 -28 -10 -11
-13 -17 -6 -14 6 4 14 1 17 -5 3 -7 4 -4 3 7 -1 12 3 19 11 17 9 -1 7 6 -5 25
-10 17 -11 23 -3 16 20 -18 34 -16 16 2 -23 24 -10 46 20 34 17 -6 23 -6 19 2
-4 6 1 16 10 23 15 11 15 12 -4 12 -11 0 -18 -4 -15 -7 2 -4 0 -10 -5 -13 -16
-11 -22 11 -6 24 8 7 12 17 9 22 -4 6 3 5 15 -1 16 -9 21 -9 19 0 -2 6 3 14
11 17 8 3 11 0 7 -7 -4 -6 -2 -11 3 -11 14 0 14 13 0 27 -8 8 -5 15 10 25 25
18 19 50 -7 41 -13 -4 -12 -2 3 10 11 9 16 17 11 17 -5 0 1 11 14 25 13 14 19
25 14 25 -5 0 -2 5 6 10 8 5 16 14 16 20 1 5 2 15 3 21 0 5 6 7 12 3 8 -4 7
-9 -2 -16 -11 -8 -10 -9 4 -4 9 3 17 0 17 -6 0 -6 3 -9 6 -5 3 3 -1 16 -10 28
-14 20 -13 25 7 53 12 17 22 34 22 39 0 9 15 11 23 1 4 -4 2 -4 -4 -1 -6 3
-11 0 -11 -7 0 -11 4 -12 19 -3 10 7 18 15 18 20 0 4 -4 5 -10 2 -6 -3 -10 1
-10 10 0 9 4 14 9 11 5 -3 11 1 14 9 4 10 1 12 -11 9 -13 -5 -14 -4 -4 4 8 5
13 11 12 13 -5 14 15 39 31 39 10 0 19 6 19 13 0 9 2 9 9 -1 7 -11 10 -10 15
3 3 9 3 22 -1 28 -3 5 6 20 21 32 25 20 26 23 10 36 -10 8 -15 9 -11 3 4 -7
-2 -23 -13 -37 -12 -15 -17 -32 -13 -43 4 -11 3 -15 -5 -10 -6 3 -13 2 -17 -4
-3 -5 -11 -10 -16 -10 -6 0 -4 7 5 15 8 8 18 24 21 35 3 11 11 20 17 20 5 0 8
6 5 14 -7 17 16 39 28 28 4 -4 4 4 0 17 -6 19 -4 23 8 18 20 -8 43 18 26 29
-8 5 -9 3 -4 -6 6 -9 4 -11 -5 -5 -9 6 -11 4 -5 -5 6 -9 4 -11 -4 -5 -9 5 -7
13 10 31 12 13 19 24 15 24 -4 0 3 15 16 33 13 17 23 34 23 37 0 3 7 14 15 25
18 24 54 31 46 8 -3 -8 -1 -11 4 -8 6 4 10 12 9 18 -3 27 2 47 11 47 6 0 10
-6 10 -14 0 -8 4 -18 10 -21 7 -4 7 3 0 20 -13 33 -13 38 1 29 8 -5 8 -1 0 14
-6 11 -16 22 -23 24 -7 3 -5 7 6 11 10 4 15 3 11 -3 -3 -6 -1 -10 4 -10 6 0
11 9 11 21 0 12 -4 17 -11 14 -6 -4 -5 2 3 14 7 12 16 21 21 21 4 0 5 5 1 12
-4 7 -3 8 4 4 7 -4 12 -1 12 8 0 28 1 31 22 54 12 12 18 22 13 22 -4 0 0 9 10
20 10 11 15 20 10 20 -4 0 -2 6 4 14 7 8 21 12 31 9 12 -3 20 0 20 6 0 7 5 9
12 5 7 -5 8 -3 4 5 -9 14 22 53 35 46 4 -3 10 -1 13 4 7 10 -13 9 -30 -2 -7
-4 -14 2 -17 14 -3 12 0 22 9 26 8 3 11 9 8 14 -6 11 9 12 20 2 3 -4 -4 -13
-16 -19 -22 -13 -22 -13 6 -10 18 2 30 9 32 20 1 9 -1 14 -4 12 -4 -2 -13 2
-19 10 -8 8 -9 15 -3 19 6 4 8 10 5 14 -2 5 4 16 15 26 11 10 17 21 15 26 -3
4 3 14 12 21 10 7 19 20 21 28 2 8 9 18 15 22 7 4 8 8 3 8 -5 0 -2 8 7 18 10
10 14 23 10 27 -5 5 6 1 22 -10 21 -13 26 -14 18 -3 -7 8 -9 19 -5 23 4 5 2 5
-5 1 -6 -3 -14 -3 -17 2 -3 5 1 9 9 10 8 1 22 3 30 4 8 1 13 4 10 6 -3 3 6 20
20 38 14 18 25 36 25 41 0 4 -4 2 -9 -5 -6 -10 -10 -7 -13 12 -5 23 -3 24 16
14 18 -10 19 -9 9 3 -13 16 0 49 14 36 4 -5 2 -12 -6 -16 -10 -7 -10 -9 2 -14
19 -7 17 31 -3 43 -11 7 -11 10 -2 10 7 0 10 5 7 10 -3 6 1 13 9 16 9 3 14 10
11 14 -3 5 3 13 12 19 10 6 15 11 11 11 -4 0 4 16 17 36 14 20 22 41 18 48 -3
6 -2 8 2 3 13 -11 17 -49 5 -42 -17 10 -11 -2 8 -16 9 -7 14 -9 9 -4 -4 4 0
19 9 33 9 13 11 21 5 18 -6 -4 -11 -4 -12 1 0 4 -2 16 -4 25 -4 22 20 44 31
27 5 -8 3 -10 -7 -4 -8 5 -11 5 -7 0 4 -4 3 -14 -3 -22 -7 -8 -8 -13 -1 -13 5
0 13 7 16 16 3 8 11 12 17 8 6 -3 3 5 -6 20 -10 15 -13 26 -6 26 5 0 8 7 5 15
-4 8 1 17 10 21 9 3 13 11 9 17 -4 6 -1 7 7 2 10 -6 12 -4 7 7 -6 16 10 38 28
38 5 0 4 -4 -3 -9 -11 -6 -10 -10 4 -15 10 -4 15 -4 11 0 -4 4 2 13 13 21 11
8 20 19 20 25 0 7 -6 4 -13 -6 -11 -15 -18 -17 -33 -8 -14 9 -15 12 -4 13 8 1
18 1 23 0 4 -1 5 10 3 23 -5 29 27 65 40 45 5 -8 3 -10 -6 -4 -9 6 -11 4 -5
-5 6 -9 4 -11 -6 -5 -8 5 -11 5 -7 0 4 -4 3 -13 -2 -20 -7 -8 -5 -12 5 -12 8
0 12 4 9 8 -3 5 4 14 15 20 16 11 17 15 5 26 -18 18 -18 28 2 47 9 9 17 22 18
29 4 31 46 55 46 26 0 -6 -7 -8 -16 -5 -10 4 -13 2 -8 -6 5 -7 2 -8 -7 -3 -8
5 -11 4 -6 0 4 -5 16 -10 26 -12 19 -3 22 16 7 50 -5 10 -4 23 3 31 6 7 8 16
4 20 -4 4 0 4 10 0 17 -6 17 -7 0 -20 -15 -10 -16 -15 -5 -26 11 -11 12 -10 7
4 -5 11 0 18 16 23 20 7 20 8 6 17 -13 7 -15 13 -7 29 6 10 8 19 5 19 -3 0 6
16 21 35 14 19 23 35 19 35 -5 0 0 9 10 20 10 11 23 20 29 20 6 0 2 -8 -9 -17
-15 -12 -16 -14 -3 -10 9 3 19 1 22 -6 3 -7 4 -3 3 8 -1 11 3 19 10 18 13 -3
12 22 -2 34 -4 4 -5 2 0 -6 6 -10 4 -12 -5 -6 -9 5 -11 4 -6 -3 5 -8 1 -10
-10 -5 -15 5 -15 7 0 15 9 5 14 13 11 17 -2 5 2 14 10 21 8 7 13 16 10 20 -2
4 6 18 18 31 12 13 21 28 19 33 -2 4 5 17 14 27 16 18 18 18 36 2 15 -14 19
-14 16 -3 -2 8 2 14 9 13 14 -3 11 20 -4 39 -8 9 -9 19 -3 28 8 12 13 13 29 3
15 -9 22 -10 27 -1 4 7 3 8 -5 4 -6 -4 -14 -1 -17 8 -3 9 -12 12 -22 8 -12 -4
-10 1 5 18 12 12 20 27 17 32 -9 14 28 22 47 9 12 -7 19 -7 19 -1 0 5 -4 10
-8 10 -5 0 -17 6 -28 14 -13 10 -14 14 -4 13 8 -2 20 -6 27 -10 6 -4 15 -2 19
4 4 8 3 9 -4 5 -7 -4 -12 -1 -12 9 0 9 -4 13 -10 10 -5 -3 -10 -2 -10 3 0 6 7
13 16 16 8 3 12 10 9 16 -3 5 -2 10 4 10 15 0 23 -18 9 -22 -8 -3 -6 -7 4 -11
13 -5 16 -1 12 19 -3 14 -1 23 4 20 5 -3 9 2 9 10 0 10 -4 11 -11 4 -22 -22
-24 -8 -4 25 l20 36 -507 -3 c-396 -2 -509 -6 -513 -15 -2 -7 1 -13 8 -13 6 0
8 5 4 12 -5 7 -3 8 6 3 10 -6 9 -11 -4 -21 -10 -7 -18 -18 -20 -26 -1 -7 -8
-22 -15 -33 -9 -15 -11 -16 -7 -2 3 9 0 17 -5 17 -7 0 -9 -11 -7 -25 3 -14 1
-25 -3 -25 -5 0 -9 -7 -9 -15 0 -8 -5 -15 -11 -15 -5 0 -7 -6 -3 -12 5 -8 0
-7 -11 2 -17 14 -17 14 -8 -5 19 -34 -13 -62 -46 -41 -9 6 -12 5 -7 -2 3 -6
-1 -18 -10 -27 -15 -15 -15 -17 0 -34 18 -20 6 -38 -16 -25 -10 5 -10 4 -1 -6
13 -14 3 -41 -24 -68 -7 -8 -11 -18 -7 -23 3 -5 -2 -12 -10 -15 -9 -3 -14 -9
-11 -13 2 -4 -2 -8 -10 -8 -22 0 -18 13 8 24 21 10 21 11 -5 9 -14 0 -24 -4
-22 -8 2 -4 -1 -10 -7 -14 -8 -4 -4 -11 12 -20 13 -7 18 -13 11 -14 -8 0 -10
-5 -6 -12 4 -7 3 -10 -1 -5 -5 4 -24 -23 -43 -60 -19 -38 -39 -71 -44 -74 -5
-3 -11 -15 -13 -25 -2 -10 -4 -21 -4 -23 -1 -2 -10 4 -22 15 -15 14 -20 15
-17 4 2 -9 -3 -14 -12 -12 -12 3 -13 1 -2 -10 11 -11 14 -10 21 1 7 11 9 11
13 0 4 -13 -42 -103 -83 -160 -11 -16 -17 -29 -13 -29 3 0 0 -7 -7 -16 -7 -9
-18 -26 -24 -38 -7 -11 -17 -20 -23 -19 -6 2 -10 -5 -9 -15 1 -22 -40 -92 -55
-92 -7 0 -7 4 -1 13 5 6 10 23 11 36 1 28 -7 23 -13 -8 -5 -29 -15 -42 -26
-36 -5 3 -6 -1 -3 -9 3 -9 10 -16 16 -16 5 0 6 6 2 13 -6 10 -4 10 7 0 18 -18
-4 -41 -23 -25 -11 9 -14 6 -15 -11 -2 -15 0 -18 6 -9 7 11 10 10 14 -3 5 -11
3 -14 -5 -9 -7 5 -9 2 -5 -8 9 -26 -14 -40 -35 -21 -21 19 -24 8 -3 -13 16
-17 11 -39 -18 -71 -11 -13 -17 -23 -13 -23 5 0 3 -7 -5 -16 -12 -14 -14 -14
-26 2 -16 21 -17 11 -3 -17 6 -11 7 -19 1 -19 -5 0 -8 -8 -7 -17 0 -11 -5 -17
-13 -15 -8 2 -11 -3 -8 -12 3 -8 -1 -20 -9 -26 -8 -7 -14 -18 -14 -25 0 -7 -7
-16 -16 -19 -8 -3 -13 -10 -9 -15 3 -5 1 -12 -5 -16 -6 -4 -8 -11 -5 -16 4 -5
-1 -12 -9 -15 -9 -3 -16 -12 -16 -20 0 -8 -5 -14 -11 -14 -5 0 -7 -6 -3 -12 6
-10 5 -10 -7 -1 -15 12 -43 12 -55 0 -4 -3 5 -4 20 -1 21 3 24 1 19 -12 -5
-12 -3 -15 6 -10 7 5 1 -9 -13 -30 -15 -22 -31 -51 -37 -66 -6 -14 -18 -29
-27 -33 -13 -5 -12 -1 4 16 10 12 13 19 7 15 -7 -4 -13 -2 -13 3 0 6 -5 11
-11 11 -8 0 -8 -4 0 -14 9 -10 8 -16 -4 -26 -12 -10 -15 -10 -15 0 0 8 -3 10
-6 7 -4 -4 -2 -13 4 -20 14 -16 6 -28 -13 -21 -7 3 -15 1 -19 -4 -6 -10 24 -9
42 2 7 4 9 13 6 19 -4 7 -1 7 7 -1 12 -11 11 -15 -4 -23 -9 -6 -15 -15 -11
-21 4 -6 -2 -8 -17 -4 -23 7 -23 7 -5 -8 11 -9 14 -16 7 -16 -7 0 -9 -5 -6
-10 3 -6 -1 -13 -9 -16 -9 -3 -14 -10 -11 -14 3 -4 -2 -10 -10 -14 -8 -3 -12
-12 -9 -21 4 -8 -1 -17 -10 -21 -9 -3 -13 -11 -9 -17 4 -6 1 -7 -7 -2 -10 6
-10 11 3 20 9 7 14 14 11 18 -3 3 6 24 20 46 15 24 21 40 14 39 -7 -2 -12 3
-10 10 1 8 -2 11 -9 7 -7 -5 -8 -10 0 -18 7 -7 4 -23 -12 -51 -12 -23 -26 -44
-31 -47 -4 -4 -3 -16 3 -28 8 -15 9 -21 1 -21 -6 0 -8 -5 -4 -12 4 -7 3 -8 -4
-4 -11 7 -17 -6 -13 -27 1 -5 -3 -6 -9 -2 -6 4 -5 16 5 35 9 18 11 31 5 35
-10 6 -14 -1 -11 -18 3 -17 -21 -47 -31 -41 -7 4 -8 3 -4 -5 4 -6 12 -9 17 -6
5 4 9 0 9 -7 0 -19 -23 -68 -32 -68 -5 0 -8 -7 -8 -15 0 -9 -7 -18 -16 -22 -8
-3 -13 -12 -10 -19 3 -8 1 -14 -5 -14 -6 0 -7 -5 -3 -12 4 -7 3 -8 -4 -4 -6 4
-9 14 -6 24 5 13 4 14 -4 3 -5 -7 -8 -21 -5 -31 3 -9 -3 -24 -12 -33 -9 -9
-14 -21 -11 -26 3 -4 -3 -16 -14 -26 -11 -10 -17 -21 -15 -26 3 -4 -2 -12 -11
-17 -9 -5 -15 -12 -15 -16 1 -3 -6 -20 -14 -36 -15 -29 -35 -40 -35 -19 0 5 5
7 12 3 6 -4 8 -3 4 4 -3 5 -1 12 6 14 17 6 0 28 -20 27 -15 -1 -15 -2 1 -6 14
-4 16 -8 6 -19 -6 -7 -15 -12 -19 -9 -5 3 -12 0 -16 -6 -4 -8 -3 -9 4 -5 11 7
17 -6 13 -27 -1 -5 3 -6 9 -2 5 3 10 1 10 -4 0 -10 -22 -16 -43 -12 -5 1 -6
-3 -2 -9 3 -5 -8 -18 -26 -29 -30 -18 -30 -19 -6 -18 14 1 23 6 19 11 -3 5 0
6 6 2 14 -8 -14 -66 -33 -66 -7 0 -16 -7 -19 -16 -6 -15 -4 -15 11 -3 15 12
16 12 8 -1 -6 -8 -10 -18 -10 -22 0 -3 -3 -9 -8 -12 -4 -3 -5 -4 -3 -1 5 8
-53 65 -65 65 -15 0 -10 18 6 23 11 3 10 4 -2 3 -13 -1 -17 -9 -15 -26 2 -20
0 -22 -8 -10 -14 21 -13 27 11 51 18 18 18 20 2 17 -11 -2 -17 2 -15 10 1 8
-2 11 -7 8 -5 -4 -14 1 -19 11 -8 13 -6 21 6 31 15 11 14 12 -6 2 -19 -9 -21
-14 -11 -33 7 -12 17 -26 23 -30 7 -6 6 -7 -3 -5 -8 2 -19 13 -25 23 -6 11
-17 25 -25 31 -11 9 -12 12 -1 19 9 5 11 4 6 -3 -4 -7 -2 -12 3 -12 6 0 10 11
9 25 -2 16 -6 21 -12 15 -6 -6 -15 -10 -21 -10 -5 1 1 10 15 22 20 17 21 20 5
14 -11 -4 -24 -8 -29 -9 -14 -3 -17 46 -4 55 10 6 10 8 1 8 -7 0 -13 5 -13 11
0 5 4 7 10 4 6 -3 7 1 4 9 -5 13 -9 12 -24 -6 -17 -22 -17 -22 -28 -2 -8 15
-8 27 2 45 12 23 11 25 -8 27 -12 0 -16 -2 -9 -6 8 -5 9 -13 3 -22 -8 -13 -10
-13 -10 1 0 9 -7 22 -15 29 -8 7 -12 16 -9 21 3 5 0 9 -6 9 -6 0 -10 12 -8 28
2 16 8 26 16 24 8 -1 11 2 7 8 -4 6 -16 3 -33 -7 -26 -17 -26 -17 -12 1 16 21
23 49 9 40 -5 -3 -9 0 -9 5 0 6 -5 11 -12 11 -6 0 -3 -9 7 -20 16 -18 16 -20
2 -20 -10 0 -16 6 -15 13 2 6 -4 11 -12 9 -9 -1 -6 6 9 18 26 22 21 26 -12 8
-19 -10 -20 -9 -9 4 13 16 7 48 -10 48 -6 0 -6 -6 1 -14 9 -11 9 -16 0 -22 -8
-4 -9 -3 -5 5 4 6 0 14 -9 17 -13 5 -14 9 -4 14 9 6 8 12 -4 25 -11 11 -17 12
-17 4 0 -7 -3 -10 -6 -6 -14 14 7 27 27 16 18 -9 19 -8 10 9 -6 11 -7 23 -3
27 4 3 2 5 -3 3 -6 -1 -11 1 -12 6 -2 11 -24 26 -38 26 -7 0 -7 -3 0 -8 6 -4
18 -16 27 -27 16 -20 16 -21 -1 -21 -10 0 -17 6 -14 12 2 7 -6 19 -19 28 -12
9 -17 16 -10 16 9 0 10 5 2 19 -12 24 -13 34 -2 27 5 -3 9 1 9 9 0 8 -5 11
-10 8 -6 -4 -8 0 -4 10 4 11 2 14 -9 10 -11 -4 -12 -9 -4 -18 8 -10 8 -15 -1
-21 -7 -4 -9 -3 -5 4 3 6 -1 15 -10 20 -9 5 -15 13 -15 18 1 5 -3 9 -8 9 -5 0
-13 4 -18 9 -4 5 -4 7 2 3 6 -3 19 2 30 10 20 15 20 15 0 9 -11 -3 -27 -1 -35
4 -8 5 -11 10 -7 10 4 0 3 9 -3 20 -6 11 -15 18 -21 15 -5 -4 -9 -2 -9 3 0 6
7 13 16 16 8 3 12 2 9 -4 -3 -6 1 -7 9 -4 21 8 20 11 -5 25 -17 9 -20 8 -14
-2 5 -8 4 -10 -3 -5 -15 9 -11 38 8 63 14 16 13 17 -2 5 -11 -9 -18 -10 -23
-2 -3 5 -12 10 -18 10 -7 0 -6 -4 3 -10 8 -5 11 -10 6 -10 -5 0 -3 -6 3 -13 8
-10 7 -14 -2 -14 -8 0 -14 5 -14 11 -1 24 -9 42 -25 57 -10 9 -18 20 -18 24 0
5 9 0 20 -10 11 -10 20 -13 20 -7 0 7 -3 12 -7 12 -5 0 -26 16 -48 36 -22 20
-33 31 -24 25 9 -6 20 -7 24 -3 5 4 5 2 2 -4 -7 -12 21 -29 31 -19 3 3 0 5 -6
5 -7 0 -12 5 -12 11 0 5 4 8 9 4 5 -3 12 -1 15 4 4 5 -2 8 -11 6 -10 -1 -27 2
-38 8 -11 6 -24 10 -28 9 -5 -1 -6 2 -2 8 3 6 10 8 14 6 4 -3 13 0 21 6 12 8
12 9 -2 4 -10 -3 -24 1 -32 9 -11 11 -16 12 -20 2 -3 -6 -3 -1 0 12 4 14 2 21
-3 18 -6 -4 -9 8 -8 28 3 34 -6 42 -39 36 -5 -1 -5 4 0 11 6 7 9 19 8 26 -1 6
-2 17 -3 22 0 6 -6 10 -12 10 -8 0 -8 -5 1 -15 10 -12 10 -15 -4 -15 -9 0 -15
6 -13 13 1 6 -4 11 -10 10 -7 -2 -13 2 -13 8 0 6 6 9 14 6 9 -4 13 0 11 11 -1
9 3 21 9 25 7 6 6 7 -4 4 -8 -2 -14 -9 -13 -14 1 -5 -4 -10 -12 -10 -8 0 -13
5 -12 11 1 6 -3 10 -10 9 -7 -2 -10 4 -6 13 5 12 7 13 14 3 4 -8 11 -10 15 -6
10 10 -2 20 -29 23 -12 1 -23 3 -25 3 -1 1 2 10 8 22 8 13 17 18 28 14 13 -5
14 -3 6 5 -9 9 -17 9 -34 0 -12 -7 -20 -7 -16 -2 3 6 3 12 -1 15 -5 2 -3 2 4
1 7 -2 15 0 17 5 3 4 0 8 -7 9 -30 2 -52 9 -49 15 1 4 2 10 2 13 0 4 8 0 18
-7 14 -11 15 -11 5 1 -7 8 -13 18 -13 23 0 4 6 5 13 1 6 -4 5 1 -4 12 -9 10
-15 25 -13 32 1 7 0 8 -3 2 -2 -5 -9 -8 -14 -4 -14 8 -11 -3 6 -19 11 -12 12
-17 2 -25 -10 -8 -13 -6 -14 11 -1 12 -7 23 -13 25 -8 3 -7 8 1 18 7 8 8 18 4
22 -4 4 -10 1 -12 -6 -4 -10 -8 -10 -19 -1 -10 8 -11 15 -4 24 6 7 7 20 4 29
-5 14 -9 14 -22 4 -13 -11 -14 -10 -3 10 6 12 7 22 2 22 -5 0 -12 -6 -14 -12
-3 -7 -6 -3 -6 9 -1 17 3 21 17 16 9 -3 14 -3 10 2 -4 4 -18 8 -30 9 -16 1
-22 7 -20 19 2 12 -2 15 -15 11 -15 -5 -16 -4 -3 5 14 10 7 16 -13 12 -5 -1
-5 3 -2 9 5 8 13 6 26 -6 11 -9 22 -15 25 -11 3 3 -4 10 -15 17 -12 6 -19 15
-16 21 4 5 11 6 17 3 7 -4 8 -2 4 5 -6 9 -11 9 -22 0 -11 -9 -17 -9 -29 1 -8
7 -13 16 -10 20 3 5 -1 15 -9 23 -11 10 -12 17 -4 25 7 7 8 15 4 19 -4 4 -11
1 -15 -6 -7 -11 -11 -10 -19 5 -5 11 -7 25 -4 33 2 8 0 11 -5 8 -6 -4 -9 4 -7
18 1 14 -2 23 -7 19 -5 -3 -7 -9 -4 -14 3 -5 1 -11 -4 -15 -13 -7 -5 33 10 51
6 8 16 11 22 7 6 -3 7 -1 3 6 -6 9 -11 9 -22 0 -8 -6 -18 -9 -21 -5 -4 4 -1
11 6 15 8 5 9 11 3 15 -13 8 -23 -19 -15 -41 5 -11 3 -14 -6 -8 -8 4 -11 20
-9 37 4 22 0 32 -16 41 -12 6 -24 10 -27 10 -4 -1 -6 5 -5 15 0 9 -5 16 -12
14 -8 -1 -11 2 -8 7 4 5 2 12 -4 16 -6 4 -8 11 -4 16 3 5 10 7 15 3 5 -3 7 -9
4 -14 -3 -5 -1 -11 4 -14 10 -7 9 20 -2 30 -3 4 -2 15 3 25 7 12 7 20 0 24 -6
4 -10 3 -9 -2 4 -21 -3 -31 -22 -36 -19 -5 -20 -4 -5 12 22 24 20 31 -9 31
-15 0 -29 8 -36 21 -8 15 -8 19 0 15 6 -4 11 -4 12 1 0 4 2 16 4 26 2 9 -1 15
-5 12 -5 -3 -14 4 -21 16 -10 20 -9 21 7 15 18 -6 18 -6 1 8 -11 8 -25 12 -33
9 -8 -3 -14 0 -14 7 0 6 -5 8 -12 4 -6 -4 -8 -3 -5 4 4 5 16 8 26 5 22 -6 37
12 20 23 -8 4 -9 3 -5 -4 8 -13 -4 -15 -28 -6 -22 8 -20 25 2 17 9 -3 6 3 -8
13 -14 10 -28 23 -32 28 -5 7 -8 6 -8 -3 0 -8 -2 -12 -5 -9 -3 3 -2 13 1 23 7
17 8 17 21 -1 7 -10 13 -14 13 -8 -1 11 -25 44 -34 44 -3 0 -5 -5 -3 -11 1 -6
-4 -13 -11 -14 -7 -2 -8 -1 -2 2 6 2 -2 18 -17 34 -16 16 -27 32 -26 37 1 4
-6 16 -15 26 -13 15 -13 17 -2 11 12 -7 13 -6 3 7 -7 8 -10 18 -6 21 3 4 3 7
0 7 -4 0 -8 -2 -8 -5z m170 -262 c-3 -19 2 -33 18 -49 13 -13 14 -16 3 -12 -8
2 -19 14 -25 26 -5 12 -14 22 -20 22 -5 0 -3 5 5 10 18 12 20 12 19 3z m2621
-13 c-6 -4 -11 -10 -11 -14 1 -3 -1 -6 -4 -6 -3 0 -10 0 -15 0 -6 0 -6 7 2 19
6 10 18 17 26 14 10 -4 10 -8 2 -13z m990 -65 c-9 -11 -15 -12 -25 -2 -7 7 -9
14 -4 15 5 2 6 8 3 14 -4 6 3 5 15 -2 18 -9 20 -14 11 -25z m-3540 -49 c0 -2
-7 -7 -16 -10 -8 -3 -12 -2 -9 4 6 10 25 14 25 6z m75 -138 c5 4 5 1 1 -6 -6
-10 -11 -10 -22 -1 -8 6 -14 14 -14 16 0 3 6 0 13 -6 8 -6 18 -7 22 -3z m450
-787 c3 -5 0 -13 -6 -17 -7 -4 -9 -3 -5 4 3 5 0 13 -6 15 -9 4 -10 6 -1 6 6 1
14 -3 18 -8z m2374 -112 c-11 -16 -26 -29 -32 -29 -8 0 -8 3 -2 8 6 4 10 14
10 22 0 8 6 14 14 12 8 -2 11 3 8 12 -4 10 -1 13 8 9 12 -4 11 -10 -6 -34z
m-4069 -189 c0 -5 -5 -10 -11 -10 -5 0 -7 5 -4 10 3 6 8 10 11 10 2 0 4 -4 4
-10z m3853 -187 c-12 -17 -18 -21 -24 -12 -4 7 0 22 9 35 22 29 35 8 15 -23z
m-163 -282 c0 -6 -10 -17 -22 -26 -13 -8 -22 -18 -20 -20 6 -13 1 -25 -9 -19
-6 3 -7 9 -3 13 5 3 10 13 12 21 7 30 42 55 42 31z m-1467 -156 c-3 -9 -8 -14
-10 -11 -3 3 -2 9 2 15 9 16 15 13 8 -4z m282 -144 c-3 -6 -11 -11 -17 -11 -6
0 -6 6 2 15 14 17 26 13 15 -4z m-170 -31 c-3 -5 -12 -10 -18 -10 -7 0 -6 4 3
10 19 12 23 12 15 0z m78 -111 c3 -12 1 -17 -6 -12 -6 4 -8 0 -4 -10 3 -9 2
-19 -2 -22 -10 -6 -24 53 -15 66 3 5 -5 9 -18 10 -13 0 -17 3 -10 6 6 2 9 10
5 16 -3 7 5 1 19 -11 15 -13 28 -32 31 -43z m826 -336 c-13 -16 -27 -32 -30
-36 -4 -5 -10 -3 -14 4 -5 8 -4 10 3 5 7 -4 13 -2 13 3 3 21 4 26 12 39 5 6
15 12 24 12 13 0 12 -5 -8 -27z m-231 -402 c-12 -14 -26 -30 -29 -34 -4 -5
-10 -3 -14 4 -5 8 -4 10 3 5 10 -6 17 6 10 18 -2 2 5 13 15 23 9 11 14 24 10
28 -5 5 0 3 10 -4 17 -13 17 -15 -5 -40z m-4038 -135 c0 -3 -4 -8 -10 -11 -5
-3 -10 -1 -10 4 0 6 5 11 10 11 6 0 10 -2 10 -4z m3673 -498 c-13 -12 -25 -19
-29 -15 -10 10 16 37 34 37 13 0 12 -4 -5 -22z m-42 -71 c-6 -6 -18 -12 -27
-13 -14 -2 -14 0 1 17 10 10 22 16 27 13 6 -4 6 -10 -1 -17z"/>
<path d="M5479 3673 c-13 -16 -12 -17 4 -4 16 13 21 21 13 21 -2 0 -10 -8 -17
-17z"/>
<path d="M4639 2213 c-13 -16 -12 -17 4 -4 16 13 21 21 13 21 -2 0 -10 -8 -17
-17z"/>
<path d="M2596 5437 c1 -12 3 -24 4 -27 1 -3 2 -8 2 -11 -1 -4 9 -16 21 -27
17 -16 26 -18 37 -11 13 9 12 10 -2 5 -20 -6 -34 10 -16 17 7 3 2 6 -12 6 -18
1 -21 4 -12 10 11 7 11 9 -2 14 -9 4 -13 13 -10 21 3 8 1 16 -4 20 -5 3 -7 -5
-6 -17z"/>
<path d="M2500 5420 c0 -5 5 -10 11 -10 5 0 7 5 4 10 -3 6 -8 10 -11 10 -2 0
-4 -4 -4 -10z"/>
<path d="M5416 5398 c6 -9 44 -6 44 3 0 4 -11 6 -24 5 -13 0 -22 -4 -20 -8z"/>
<path d="M2490 5370 c0 -5 5 -10 11 -10 5 0 7 5 4 10 -3 6 -8 10 -11 10 -2 0
-4 -4 -4 -10z"/>
<path d="M2459 5333 c-13 -17 -13 -17 6 -3 11 8 22 16 24 17 2 2 0 3 -6 3 -6
0 -17 -8 -24 -17z"/>
<path d="M5404 5328 c3 -10 -2 -22 -12 -27 -15 -9 -15 -10 -1 -11 21 0 30 22
17 41 -8 11 -9 10 -4 -3z"/>
<path d="M5375 5320 c-3 -5 -1 -10 4 -10 6 0 11 5 11 10 0 6 -2 10 -4 10 -3 0
-8 -4 -11 -10z"/>
<path d="M2450 5299 c0 -5 5 -7 10 -4 6 3 10 8 10 11 0 2 -4 4 -10 4 -5 0 -10
-5 -10 -11z"/>
<path d="M5364 5261 c4 -5 0 -11 -6 -14 -8 -2 -9 -8 -4 -13 5 -5 11 -4 13 4 3
6 10 9 16 5 7 -4 6 1 -2 10 -14 18 -26 23 -17 8z"/>
<path d="M6394 5253 c3 -4 1 -12 -6 -20 -8 -10 -8 -17 0 -25 7 -7 12 -8 12 -4
0 5 8 2 18 -5 15 -13 16 -12 3 4 -11 13 -11 17 -1 17 8 0 10 3 7 6 -4 4 -13 1
-22 -6 -8 -7 -15 -8 -15 -2 0 10 24 33 31 29 2 -1 3 0 1 2 -1 3 -10 6 -18 7
-9 1 -13 0 -10 -3z"/>
<path d="M2394 5202 c3 -6 -2 -15 -11 -21 -10 -6 -13 -11 -7 -11 20 0 37 27
23 36 -7 4 -9 3 -5 -4z"/>
<path d="M6354 5169 c-4 -7 -3 -9 4 -5 5 3 13 0 15 -6 4 -9 6 -10 6 -1 1 17
-16 25 -25 12z"/>
<path d="M2343 5138 c3 -9 1 -19 -6 -22 -9 -3 -9 -5 0 -5 18 -1 23 13 11 29
-8 12 -9 12 -5 -2z"/>
<path d="M2782 5129 c-7 -10 -12 -21 -12 -23 0 -7 29 0 37 9 4 4 2 5 -4 1 -7
-4 -13 -3 -13 3 0 5 5 11 12 13 7 3 8 7 2 11 -5 3 -15 -3 -22 -14z"/>
<path d="M5285 5111 c-11 -5 -23 -7 -27 -5 -4 3 -9 0 -13 -5 -3 -6 6 -8 22 -5
l28 4 -30 -25 c-16 -14 -23 -25 -15 -23 12 2 60 54 60 65 0 4 0 4 -25 -6z"/>
<path d="M6300 5095 c-7 -9 -10 -18 -6 -22 3 -4 -6 -19 -21 -35 -15 -15 -23
-28 -18 -28 4 0 1 -8 -8 -18 -15 -16 -15 -19 3 -30 12 -7 20 -8 20 -2 0 5 -4
10 -10 10 -5 0 -10 4 -10 10 0 5 8 7 18 4 14 -5 15 -4 2 5 -14 10 -7 16 15 11
6 -1 7 2 2 6 -4 4 -1 14 7 23 14 16 16 20 16 42 0 5 5 7 10 4 6 -3 10 -1 10 4
0 6 -5 11 -11 11 -5 0 -7 5 -4 10 10 15 -1 12 -15 -5z m0 -48 c0 -2 -10 -12
-22 -23 l-23 -19 19 23 c18 21 26 27 26 19z"/>
<path d="M2295 5041 c3 -6 -3 -14 -12 -20 -10 -6 -13 -11 -7 -11 12 0 34 20
34 32 0 4 -5 8 -11 8 -5 0 -8 -4 -4 -9z"/>
<path d="M6335 5040 c3 -5 8 -10 11 -10 2 0 4 5 4 10 0 6 -5 10 -11 10 -5 0
-7 -4 -4 -10z"/>
<path d="M2866 5022 c-3 -5 1 -9 9 -9 8 0 12 4 9 9 -3 4 -7 8 -9 8 -2 0 -6 -4
-9 -8z"/>
<path d="M2860 4980 c6 -11 12 -20 14 -20 2 0 2 9 -1 20 -3 11 -9 20 -15 20
-5 0 -4 -9 2 -20z"/>
<path d="M2890 4976 c0 -8 4 -17 9 -20 5 -4 7 3 4 14 -6 23 -13 26 -13 6z"/>
<path d="M5206 4978 c3 -5 10 -6 15 -3 13 9 11 12 -6 12 -8 0 -12 -4 -9 -9z"/>
<path d="M5179 4963 c-1 -5 -2 -12 -4 -18 -1 -5 -3 -16 -3 -23 -1 -7 -6 -10
-12 -7 -16 10 -12 -1 6 -15 8 -8 14 -9 13 -4 -4 21 2 35 12 28 7 -4 7 1 -1 16
-11 20 -10 22 4 17 10 -4 15 -3 11 3 -7 12 -24 13 -26 3z"/>
<path d="M6182 4895 c5 -5 -3 -23 -17 -41 l-25 -33 21 -12 c16 -8 20 -8 14 1
-4 6 1 18 11 26 17 13 17 13 1 8 -13 -5 -16 -2 -11 10 3 9 11 13 17 9 6 -4 7
-1 2 7 -6 10 -4 12 8 7 25 -9 21 0 -5 14 -13 6 -20 8 -16 4z"/>
<path d="M5155 4880 c6 -9 4 -12 -6 -8 -10 4 -15 -1 -16 -13 -2 -25 13 -24 27
0 7 14 7 22 -2 27 -7 5 -8 3 -3 -6z"/>
<path d="M2951 4854 c0 -11 3 -14 6 -6 3 7 2 16 -1 19 -3 4 -6 -2 -5 -13z"/>
<path d="M5113 4825 c0 -8 4 -15 9 -15 4 0 8 4 8 9 0 6 -4 12 -8 15 -5 3 -9
-1 -9 -9z"/>
<path d="M2163 4813 c-15 -5 -17 -23 -4 -23 5 0 11 7 15 15 3 8 4 15 3 14 -1
0 -8 -3 -14 -6z"/>
<path d="M2956 4798 c3 -4 11 -5 19 -1 21 7 19 12 -4 10 -11 0 -18 -5 -15 -9z"/>
<path d="M6134 4787 c-4 -7 -4 -9 1 -5 4 4 14 3 22 -3 8 -7 13 -8 13 -1 0 15
-28 23 -36 9z"/>
<path d="M2134 4762 c3 -6 -2 -15 -11 -21 -11 -6 -13 -11 -5 -11 8 0 10 -5 6
-12 -4 -8 -3 -10 2 -5 5 5 9 12 9 15 0 4 4 12 8 19 4 6 2 15 -4 19 -7 4 -9 3
-5 -4z"/>
<path d="M5050 4759 c0 -5 5 -7 10 -4 6 3 10 8 10 11 0 2 -4 4 -10 4 -5 0 -10
-5 -10 -11z"/>
<path d="M2999 4743 c5 -10 9 -21 10 -25 2 -12 15 -11 19 1 2 6 -1 11 -7 11
-6 0 -11 7 -11 15 0 8 -5 15 -10 15 -7 0 -7 -6 -1 -17z"/>
<path d="M5077 4753 c-10 -9 -9 -23 1 -23 5 0 9 7 9 15 0 17 -1 18 -10 8z"/>
<path d="M6136 4742 c-2 -4 4 -8 14 -8 10 0 16 4 14 8 -3 4 -9 8 -14 8 -5 0
-11 -4 -14 -8z"/>
<path d="M5040 4705 c-5 -14 -9 -29 -9 -33 4 -26 -35 -77 -52 -67 -5 4 -9 1
-9 -5 0 -7 7 -9 16 -6 9 3 17 6 19 6 11 0 48 77 49 101 1 36 -2 36 -14 4z"/>
<path d="M5065 4709 c-4 -6 -5 -12 -2 -15 2 -3 7 2 10 11 7 17 1 20 -8 4z"/>
<path d="M2096 4702 c-3 -5 1 -9 9 -9 8 0 12 4 9 9 -3 4 -7 8 -9 8 -2 0 -6 -4
-9 -8z"/>
<path d="M4996 4654 c-3 -8 -11 -12 -17 -8 -8 4 -9 3 -5 -4 9 -15 36 -4 36 14
0 19 -6 18 -14 -2z"/>
<path d="M6048 4645 c-11 -14 -13 -26 -7 -36 7 -11 9 -11 9 -1 0 7 4 11 9 8 5
-4 8 2 7 11 -2 10 4 21 12 24 13 5 13 6 1 11 -8 3 -21 -4 -31 -17z"/>
<path d="M3064 4634 c-18 -15 -18 -15 2 -5 12 6 25 7 29 3 5 -4 5 -1 1 6 -9
15 -8 15 -32 -4z"/>
<path d="M4995 4579 c-4 -6 -14 -8 -24 -4 -13 5 -14 4 -3 -6 10 -11 15 -10 29
4 10 9 14 17 11 17 -4 0 -10 -5 -13 -11z"/>
<path d="M6035 4560 c-3 -6 1 -7 9 -4 18 7 21 14 7 14 -6 0 -13 -4 -16 -10z"/>
<path d="M4947 4535 c18 -13 33 -11 33 4 0 5 -11 9 -25 9 -23 0 -24 -2 -8 -13z"/>
<path d="M3120 4520 c-8 -5 -10 -10 -5 -10 6 0 17 5 25 10 8 5 11 10 5 10 -5
0 -17 -5 -25 -10z"/>
<path d="M4922 4510 c-7 -11 -8 -20 -3 -20 9 0 24 30 18 36 -1 2 -8 -6 -15
-16z"/>
<path d="M4925 4469 c-4 -6 -5 -12 -2 -15 2 -3 7 2 10 11 7 17 1 20 -8 4z"/>
<path d="M5940 4476 c0 -2 8 -10 18 -17 15 -13 16 -12 3 4 -13 16 -21 21 -21
13z"/>
<path d="M1940 4466 c0 -2 8 -10 18 -17 15 -13 16 -12 3 4 -13 16 -21 21 -21
13z"/>
<path d="M5925 4434 c-18 -14 -18 -14 1 -28 10 -8 21 -12 24 -9 3 3 -1 8 -7
10 -7 3 -13 9 -13 14 0 6 4 8 8 5 4 -2 14 -1 21 3 10 7 10 9 -1 13 -8 3 -22 0
-33 -8z"/>
<path d="M1900 4426 c0 -2 8 -10 18 -17 15 -13 16 -12 3 4 -13 16 -21 21 -21
13z"/>
<path d="M3215 4419 c-4 -6 -5 -12 -2 -15 2 -3 7 2 10 11 7 17 1 20 -8 4z"/>
<path d="M5915 4380 c3 -5 8 -10 11 -10 2 0 4 5 4 10 0 6 -5 10 -11 10 -5 0
-7 -4 -4 -10z"/>
<path d="M4830 4340 c0 -5 5 -10 11 -10 5 0 7 -5 3 -12 -4 -7 -3 -8 5 -4 9 6
9 11 0 22 -14 17 -19 18 -19 4z"/>
<path d="M5908 4323 c7 -3 16 -2 19 1 4 3 -2 6 -13 5 -11 0 -14 -3 -6 -6z"/>
<path d="M4775 4301 c-3 -5 -2 -12 3 -15 5 -3 9 1 9 9 0 17 -3 19 -12 6z"/>
<path d="M4807 4289 c7 -7 15 -10 18 -7 3 3 -2 9 -12 12 -14 6 -15 5 -6 -5z"/>
<path d="M1835 4270 c-3 -5 -1 -10 4 -10 6 0 11 5 11 10 0 6 -2 10 -4 10 -3 0
-8 -4 -11 -10z"/>
<path d="M3306 4262 c-3 -5 1 -9 9 -9 8 0 12 4 9 9 -3 4 -7 8 -9 8 -2 0 -6 -4
-9 -8z"/>
<path d="M4770 4257 c0 -5 10 -5 22 -1 20 6 21 5 9 -9 -7 -9 -16 -15 -20 -13
-4 3 -8 -4 -8 -15 -1 -10 3 -19 8 -19 6 0 8 4 5 9 -3 4 3 16 14 26 27 24 25
35 -5 33 -14 -1 -25 -6 -25 -11z"/>
<path d="M5819 4253 c-13 -16 -13 -17 4 -4 10 8 17 9 17 3 0 -6 -12 -18 -27
-26 -16 -9 -21 -16 -13 -16 11 -1 10 -4 -5 -13 -22 -13 -31 -37 -15 -37 6 0
10 7 10 16 0 8 5 12 10 9 6 -3 10 -1 10 5 0 6 5 8 13 4 7 -5 6 0 -3 11 -14 17
-13 18 2 12 11 -4 17 -2 15 5 -1 7 3 12 10 13 6 0 14 3 17 8 3 4 3 5 -1 2 -3
-3 -11 2 -18 11 -10 14 -13 14 -26 -3z"/>
<path d="M1795 4200 c-3 -5 -1 -10 4 -10 6 0 11 5 11 10 0 6 -2 10 -4 10 -3 0
-8 -4 -11 -10z"/>
<path d="M4730 4181 c0 -6 4 -13 10 -16 6 -3 7 1 4 9 -7 18 -14 21 -14 7z"/>
<path d="M1797 4160 c-8 -11 -17 -17 -22 -12 -5 4 -5 2 -1 -5 3 -6 -2 -17 -11
-23 -10 -6 -12 -10 -4 -8 14 4 69 68 58 68 -3 0 -12 -9 -20 -20z"/>
<path d="M4719 4151 c11 -7 11 -9 0 -14 -8 -3 -4 -4 9 -4 26 1 29 12 6 21 -23
9 -31 7 -15 -3z"/>
<path d="M5790 4139 c0 -5 5 -7 10 -4 6 3 10 8 10 11 0 2 -4 4 -10 4 -5 0 -10
-5 -10 -11z"/>
<path d="M3366 4105 c9 -14 21 -25 28 -24 7 0 6 2 -2 6 -6 2 -10 8 -8 12 3 4
-4 13 -15 19 -19 12 -19 12 -3 -13z"/>
<path d="M4690 4104 l-25 -15 25 7 c24 6 24 6 9 -12 -18 -21 -38 -56 -23 -39
42 46 54 64 47 68 -4 3 -19 -1 -33 -9z"/>
<path d="M5731 4032 c-7 -13 -6 -19 2 -19 7 0 13 9 13 19 0 10 -1 18 -3 18 -1
0 -7 -8 -12 -18z"/>
<path d="M4657 4025 c3 -8 9 -12 14 -9 12 7 11 11 -5 17 -10 4 -13 1 -9 -8z"/>
<path d="M1706 4013 c-6 -14 -5 -15 5 -6 7 7 10 15 7 18 -3 3 -9 -2 -12 -12z"/>
<path d="M4627 3983 c3 -7 -1 -13 -8 -13 -7 0 -10 -3 -6 -6 3 -4 17 3 31 14
l26 20 -24 -2 c-14 0 -22 -6 -19 -13z"/>
<path d="M3460 3986 c0 -2 8 -10 18 -17 15 -13 16 -12 3 4 -13 16 -21 21 -21
13z"/>
<path d="M5690 3980 c0 -5 5 -10 10 -10 6 0 10 5 10 10 0 6 -4 10 -10 10 -5 0
-10 -4 -10 -10z"/>
<path d="M5640 3945 c-10 -12 -10 -15 1 -15 8 0 5 -6 -7 -14 -10 -8 -19 -19
-19 -25 0 -5 -9 -16 -19 -24 -16 -11 -16 -15 -4 -19 8 -4 21 -2 29 3 11 7 11
9 1 9 -7 0 -10 5 -7 10 5 8 12 7 23 -2 15 -12 16 -11 3 5 -7 9 -11 18 -7 18 3
1 10 2 15 3 5 0 13 5 18 10 4 5 3 6 -3 3 -7 -4 -11 3 -11 18 0 21 2 23 13 14
8 -7 16 -10 19 -8 2 3 -4 10 -15 16 -14 10 -21 9 -30 -2z"/>
<path d="M4566 3905 c-11 -8 -15 -15 -9 -15 6 0 16 7 23 15 16 19 11 19 -14 0z"/>
<path d="M1635 3900 c-3 -5 -2 -10 4 -10 5 0 13 5 16 10 3 6 2 10 -4 10 -5 0
-13 -4 -16 -10z"/>
<path d="M4587 3892 c-10 -10 -17 -24 -17 -31 0 -7 -6 -11 -14 -8 -10 4 -13 1
-9 -8 7 -19 17 -12 42 30 23 39 22 44 -2 17z"/>
<path d="M1576 3838 c3 -5 10 -6 15 -3 13 9 11 12 -6 12 -8 0 -12 -4 -9 -9z"/>
<path d="M5567 3820 c-9 -11 -15 -20 -13 -20 3 0 12 -3 21 -7 14 -5 16 -2 10
17 -5 17 -4 21 5 15 9 -5 11 -4 6 3 -9 15 -9 15 -29 -8z"/>
<path d="M3546 3802 c-2 -4 -1 -14 3 -21 6 -10 10 -9 14 3 6 16 -8 32 -17 18z"/>
<path d="M5550 3782 c0 -4 10 -9 22 -9 18 -2 20 0 8 7 -18 12 -30 13 -30 2z"/>
<path d="M1560 3760 c-9 -6 -10 -10 -3 -10 6 0 15 5 18 10 8 12 4 12 -15 0z"/>
<path d="M3575 3740 c3 -5 8 -10 11 -10 2 0 4 5 4 10 0 6 -5 10 -11 10 -5 0
-7 -4 -4 -10z"/>
<path d="M1496 3695 c-9 -26 -7 -32 5 -12 6 10 9 21 6 23 -2 3 -7 -2 -11 -11z"/>
<path d="M4436 3697 c3 -10 9 -15 12 -12 3 3 0 11 -7 18 -10 9 -11 8 -5 -6z"/>
<path d="M1509 3663 c-13 -16 -12 -17 4 -4 16 13 21 21 13 21 -2 0 -10 -8 -17
-17z"/>
<path d="M3635 3671 c-3 -5 -2 -12 3 -15 5 -3 9 1 9 9 0 17 -3 19 -12 6z"/>
<path d="M4416 3658 c3 -5 10 -6 15 -3 13 9 11 12 -6 12 -8 0 -12 -4 -9 -9z"/>
<path d="M4399 3648 c-5 -18 -6 -38 -1 -34 7 8 12 36 6 36 -2 0 -4 -1 -5 -2z"/>
<path d="M1470 3621 c0 -6 4 -13 10 -16 6 -3 7 1 4 9 -7 18 -14 21 -14 7z"/>
<path d="M5445 3620 c-3 -6 -3 -10 1 -10 4 0 -1 -9 -11 -20 -10 -11 -14 -20
-10 -20 5 0 0 -10 -11 -22 -11 -13 -20 -30 -19 -38 1 -8 -10 -28 -24 -45 -14
-16 -22 -27 -17 -23 5 5 16 2 24 -5 11 -8 14 -8 9 0 -4 6 -3 14 3 18 6 4 7 11
4 17 -5 7 -1 9 9 5 9 -3 19 -1 23 5 4 6 3 8 -4 4 -6 -4 -10 6 -8 26 1 21 6 32
14 30 8 -1 11 2 6 9 -5 9 -1 10 12 6 16 -6 17 -5 3 5 -15 10 -15 13 -1 29 12
14 19 15 29 7 7 -6 13 -6 13 -2 0 15 -38 35 -45 24z"/>
<path d="M3700 3546 c0 -2 7 -7 16 -10 8 -3 12 -2 9 4 -6 10 -25 14 -25 6z"/>
<path d="M4330 3500 c-9 -6 -10 -10 -3 -10 6 0 15 5 18 10 8 12 4 12 -15 0z"/>
<path d="M4342 3470 c-13 -17 -17 -27 -8 -24 11 4 41 54 33 54 -2 0 -13 -13
-25 -30z"/>
<path d="M4290 3439 c0 -5 5 -7 10 -4 6 3 10 8 10 11 0 2 -4 4 -10 4 -5 0 -10
-5 -10 -11z"/>
<path d="M4310 3420 c0 -5 5 -10 10 -10 6 0 10 5 10 10 0 6 -4 10 -10 10 -5 0
-10 -4 -10 -10z"/>
<path d="M5416 3418 c3 -5 10 -6 15 -3 13 9 11 12 -6 12 -8 0 -12 -4 -9 -9z"/>
<path d="M3785 3390 c-4 -6 -1 -18 7 -27 7 -9 12 -18 10 -20 -2 -3 -1 -7 2
-11 3 -3 5 6 4 21 -1 14 -6 23 -10 21 -4 -3 -8 -1 -8 5 0 5 6 12 13 14 9 4 9
6 0 6 -6 1 -15 -4 -18 -9z"/>
<path d="M4256 3363 c-6 -14 -5 -15 5 -6 7 7 10 15 7 18 -3 3 -9 -2 -12 -12z"/>
<path d="M4270 3341 c0 -7 -4 -9 -10 -6 -5 3 -10 1 -10 -4 0 -6 4 -11 9 -11
13 0 25 20 17 27 -3 4 -6 1 -6 -6z"/>
<path d="M3845 3300 c-3 -5 -3 -10 2 -10 4 0 3 -4 -4 -8 -8 -5 -9 -13 -3 -22
9 -13 10 -13 11 0 0 8 2 23 4 33 4 19 -1 22 -10 7z"/>
<path d="M4233 3298 c0 -7 -4 -21 -8 -32 -8 -18 -7 -18 13 -1 11 10 18 24 15
31 -6 17 -20 18 -20 2z"/>
<path d="M5250 3275 c-7 -8 -9 -15 -6 -15 4 0 -4 -15 -18 -33 -14 -19 -23 -37
-19 -41 4 -4 1 -11 -6 -15 -9 -6 -5 -8 13 -8 15 0 29 3 32 8 3 5 -3 6 -12 2
-12 -4 -15 -3 -10 5 4 7 2 12 -4 12 -6 0 -8 5 -5 10 4 7 13 7 25 0 16 -9 18
-8 13 6 -5 13 -3 15 8 9 8 -4 11 -5 7 0 -4 4 -3 14 4 22 9 11 7 12 -8 6 -17
-6 -17 -5 -5 10 7 9 18 14 25 10 6 -4 5 1 -3 10 -16 21 -16 21 -31 2z m-8 -57
c-7 -7 -12 -8 -12 -2 0 14 12 26 19 19 2 -3 -1 -11 -7 -17z"/>
<path d="M1266 3257 c3 -10 9 -15 12 -12 3 3 0 11 -7 18 -10 9 -11 8 -5 -6z"/>
<path d="M4195 3260 c-3 -5 -1 -10 4 -10 6 0 11 5 11 10 0 6 -2 10 -4 10 -3 0
-8 -4 -11 -10z"/>
<path d="M5290 3241 c0 -6 4 -13 10 -16 6 -3 7 1 4 9 -7 18 -14 21 -14 7z"/>
<path d="M4196 3228 c3 -4 11 -5 19 -1 21 7 19 12 -4 10 -11 0 -18 -5 -15 -9z"/>
<path d="M3894 3218 c-12 -19 -14 -39 -3 -32 5 3 7 9 4 14 -3 4 1 10 7 13 7 2
10 7 7 11 -4 4 -11 1 -15 -6z"/>
<path d="M4170 3221 c0 -9 30 -24 36 -18 2 1 -6 8 -16 15 -11 7 -20 8 -20 3z"/>
<path d="M1196 3162 c-3 -5 1 -9 9 -9 8 0 12 4 9 9 -3 4 -7 8 -9 8 -2 0 -6 -4
-9 -8z"/>
<path d="M4095 3105 c0 -13 3 -21 8 -18 4 2 7 10 7 18 0 8 -3 16 -7 18 -5 3
-8 -5 -8 -18z"/>
<path d="M5194 3118 c-4 -5 -13 -7 -23 -3 -12 5 -13 4 -4 -6 9 -9 16 -9 26 -1
8 7 16 9 19 6 3 -3 8 -1 12 4 3 5 -2 9 -10 9 -8 0 -17 -4 -20 -9z"/>
<path d="M5175 3080 c3 -5 8 -10 11 -10 2 0 4 5 4 10 0 6 -5 10 -11 10 -5 0
-7 -4 -4 -10z"/>
<path d="M1153 3065 c0 -8 4 -12 9 -9 4 3 8 9 8 15 0 5 -4 9 -8 9 -5 0 -9 -7
-9 -15z"/>
<path d="M1136 3037 c3 -10 9 -15 12 -12 3 3 0 11 -7 18 -10 9 -11 8 -5 -6z"/>
<path d="M4088 3036 c-22 -16 -23 -23 -3 -23 8 0 13 3 10 5 -3 3 0 11 6 19 14
16 9 16 -13 -1z"/>
<path d="M5156 3035 c-11 -8 -15 -15 -9 -15 6 0 16 7 23 15 16 19 11 19 -14 0z"/>
<path d="M1090 3008 c0 -2 9 -11 20 -21 11 -9 20 -13 20 -7 0 5 -9 14 -20 20
-11 6 -20 9 -20 8z"/>
<path d="M5130 2966 c0 -2 7 -7 16 -10 8 -3 12 -2 9 4 -6 10 -25 14 -25 6z"/>
<path d="M5061 2946 c-9 -11 -8 -15 5 -20 9 -4 19 -4 22 -1 3 3 0 5 -6 5 -7 0
-12 5 -12 11 0 6 7 8 16 5 8 -3 12 -2 9 4 -9 14 -21 12 -34 -4z"/>
<path d="M1056 2935 c-9 -26 -7 -32 5 -12 6 10 9 21 6 23 -2 3 -7 -2 -11 -11z"/>
<path d="M5076 2899 c2 -4 -2 -10 -8 -12 -8 -4 -9 -6 -2 -6 6 -1 17 5 23 12 8
10 7 14 -4 14 -8 0 -12 -4 -9 -8z"/>
<path d="M5035 2839 c-4 -6 -13 -8 -20 -5 -8 3 -20 -6 -29 -19 -13 -20 -13
-25 -1 -35 12 -10 13 -8 10 8 -2 13 5 24 23 33 15 7 31 12 35 10 5 -1 6 3 2 9
-8 13 -12 13 -20 -1z"/>
<path d="M1015 2820 c3 -5 8 -10 11 -10 2 0 4 5 4 10 0 6 -5 10 -11 10 -5 0
-7 -4 -4 -10z"/>
<path d="M995 2800 c-3 -5 -1 -10 4 -10 6 0 11 5 11 10 0 6 -2 10 -4 10 -3 0
-8 -4 -11 -10z"/>
<path d="M5013 2795 c-3 -9 -3 -18 -1 -21 3 -3 8 4 11 16 6 23 -1 27 -10 5z"/>
<path d="M4930 2708 c-30 -41 -32 -54 -12 -70 15 -11 15 -11 4 4 -11 14 -10
19 10 32 12 9 17 16 10 16 -7 0 -10 5 -7 10 4 6 11 8 16 5 5 -4 6 2 2 12 -6
16 -5 16 10 4 15 -12 17 -12 11 3 -9 23 -17 20 -44 -16z"/>
<path d="M4936 2661 c-4 -5 3 -7 14 -4 23 6 26 13 6 13 -8 0 -17 -4 -20 -9z"/>
<path d="M903 2621 c0 -11 5 -18 9 -15 4 3 5 11 1 19 -7 21 -12 19 -10 -4z"/>
<path d="M870 2620 c0 -5 5 -10 11 -10 5 0 7 5 4 10 -3 6 -8 10 -11 10 -2 0
-4 -4 -4 -10z"/>
<path d="M839 2548 c-6 -21 -5 -38 1 -38 5 0 8 9 7 20 -1 17 -5 26 -8 18z"/>
<path d="M800 2486 c0 -2 8 -10 18 -17 15 -13 16 -12 3 4 -13 16 -21 21 -21
13z"/>
<path d="M4796 2468 c3 -5 10 -6 15 -3 13 9 11 12 -6 12 -8 0 -12 -4 -9 -9z"/>
<path d="M764 2382 c3 -5 0 -13 -6 -15 -9 -4 -10 -6 -1 -6 17 -1 25 16 12 25
-7 4 -9 3 -5 -4z"/>
<path d="M4737 2376 c-4 -10 -1 -13 8 -9 8 3 12 9 9 14 -7 12 -11 11 -17 -5z"/>
<path d="M706 2301 c-3 -5 0 -11 7 -14 8 -3 14 1 14 9 0 16 -13 19 -21 5z"/>
<path d="M626 2198 c3 -5 10 -6 15 -3 13 9 11 12 -6 12 -8 0 -12 -4 -9 -9z"/>
<path d="M4655 2179 c-4 -6 -4 -13 -1 -16 3 -4 6 -1 6 5 0 6 8 13 18 15 15 4
15 5 0 6 -9 0 -20 -4 -23 -10z"/>
<path d="M606 2138 c3 -4 9 -8 15 -8 5 0 9 4 9 8 0 5 -7 9 -15 9 -8 0 -12 -4
-9 -9z"/>
<path d="M4633 2135 c0 -8 4 -12 9 -9 4 3 8 9 8 15 0 5 -4 9 -8 9 -5 0 -9 -7
-9 -15z"/>
<path d="M4595 2130 c-3 -6 1 -7 9 -4 18 7 21 14 7 14 -6 0 -13 -4 -16 -10z"/>
<path d="M590 2100 c0 -5 5 -10 11 -10 5 0 7 5 4 10 -3 6 -8 10 -11 10 -2 0
-4 -4 -4 -10z"/>
<path d="M4625 2100 c-3 -6 1 -7 9 -4 18 7 21 14 7 14 -6 0 -13 -4 -16 -10z"/>
<path d="M545 1994 c-9 -15 -12 -23 -6 -20 11 7 35 46 28 46 -3 0 -12 -12 -22
-26z"/>
<path d="M4560 2000 c-9 -6 -10 -10 -3 -10 6 0 15 5 18 10 8 12 4 12 -15 0z"/>
<path d="M510 1960 c0 -5 5 -10 11 -10 5 0 7 5 4 10 -3 6 -8 10 -11 10 -2 0
-4 -4 -4 -10z"/>
<path d="M4466 1912 c2 -3 -2 -12 -8 -21 -7 -9 -8 -13 -4 -9 5 4 15 3 22 -3 9
-7 12 -6 10 6 -1 8 -7 19 -13 24 -5 5 -8 6 -7 3z"/>
<path d="M470 1879 c0 -5 5 -7 10 -4 6 3 10 8 10 11 0 2 -4 4 -10 4 -5 0 -10
-5 -10 -11z"/>
<path d="M4442 1855 c-7 -8 -13 -18 -13 -22 0 -5 -9 -17 -20 -29 -17 -18 -18
-23 -6 -33 12 -9 14 -7 13 10 0 12 5 24 13 27 9 3 11 0 6 -8 -5 -9 -4 -11 4
-6 6 4 9 12 5 17 -3 5 2 21 10 34 18 27 9 34 -12 10z"/>
<path d="M460 1850 c-8 -5 -12 -12 -9 -15 4 -3 12 1 19 10 14 17 11 19 -10 5z"/>
<path d="M433 1819 c3 -9 0 -22 -6 -28 -6 -6 -9 -13 -6 -15 11 -11 27 31 17
45 -8 11 -9 11 -5 -2z"/>
<path d="M2730 1800 c0 -5 5 -10 11 -10 5 0 7 5 4 10 -3 6 -8 10 -11 10 -2 0
-4 -4 -4 -10z"/>
<path d="M4435 1769 c-4 -6 -5 -12 -2 -15 2 -3 7 2 10 11 7 17 1 20 -8 4z"/>
<path d="M4362 1718 c10 -6 10 -8 -2 -8 -11 -1 -11 -3 3 -11 10 -6 21 -8 24
-5 4 3 0 6 -8 6 -8 1 -3 7 9 14 24 13 24 13 -7 13 -21 0 -27 -3 -19 -9z"/>
<path d="M359 1687 c6 -8 7 -18 3 -22 -4 -5 -1 -5 6 -1 10 6 10 11 1 22 -6 8
-14 14 -16 14 -3 0 0 -6 6 -13z"/>
<path d="M4355 1669 c-4 -5 -17 -14 -30 -19 -25 -9 -27 -32 -5 -53 10 -9 11
-9 6 1 -4 7 -2 12 5 12 7 0 4 7 -7 16 -12 10 -14 14 -4 11 8 -2 23 6 33 19 10
13 16 24 13 24 -3 0 -8 -5 -11 -11z"/>
<path d="M296 1617 c3 -10 9 -15 12 -12 3 3 0 11 -7 18 -10 9 -11 8 -5 -6z"/>
<path d="M4313 1545 c0 -8 4 -12 9 -9 5 3 6 10 3 15 -9 13 -12 11 -12 -6z"/>
<path d="M2893 1515 c0 -8 4 -12 9 -9 5 3 6 10 3 15 -9 13 -12 11 -12 -6z"/>
<path d="M4255 1479 c-4 -6 -5 -12 -2 -15 2 -3 7 2 10 11 7 17 1 20 -8 4z"/>
<path d="M4233 1430 c1 -21 10 -18 13 5 1 8 -2 15 -6 15 -5 0 -8 -9 -7 -20z"/>
<path d="M4204 1426 c1 -8 5 -18 8 -22 4 -3 5 1 4 10 -1 8 -5 18 -8 22 -4 3
-5 -1 -4 -10z"/>
<path d="M183 1375 c0 -8 4 -12 9 -9 5 3 6 10 3 15 -9 13 -12 11 -12 -6z"/>
<path d="M155 1360 c-3 -5 -1 -10 4 -10 6 0 11 5 11 10 0 6 -2 10 -4 10 -3 0
-8 -4 -11 -10z"/>
<path d="M4135 1251 c-3 -5 -2 -12 3 -15 5 -3 9 1 9 9 0 17 -3 19 -12 6z"/>
</g>
</svg>
